<svg width="145" height="37" viewBox="0 0 145 37" fill="none" xmlns="http://www.w3.org/2000/svg">
<g clip-path="url(#clip0_2730_2332)">
<path d="M28.2672 13.5334C27.7809 13.0434 27.1974 12.6561 26.5527 12.3956C25.9081 12.135 25.2158 12.0065 24.5186 12.018H11.1596V7.1752C11.1503 6.68714 11.2404 6.20217 11.4245 5.74864C11.6085 5.29509 11.883 4.88208 12.2317 4.53374C12.5804 4.18538 12.9964 3.90868 13.4554 3.71979C13.9144 3.5309 14.4071 3.4336 14.905 3.4336C15.4027 3.4336 15.8955 3.5309 16.3546 3.71979C16.8135 3.90868 17.2296 4.18538 17.5782 4.53374C17.9269 4.88208 18.2013 5.29509 18.3855 5.74864C18.5695 6.20217 18.6596 6.68714 18.6504 7.1752V9.77151H22.2213V7.1752C22.2342 6.225 22.0544 5.28177 21.6924 4.40026C21.3306 3.51875 20.7937 2.71651 20.113 2.04013C19.4324 1.36374 18.6215 0.826673 17.7274 0.460109C16.8334 0.0935459 15.874 -0.0952148 14.905 -0.0952148C13.9359 -0.0952148 12.9766 0.0935459 12.0825 0.460109C11.1884 0.826673 10.3775 1.36374 9.69688 2.04013C9.01622 2.71651 8.47936 3.51875 8.11744 4.40026C7.75553 5.28177 7.57579 6.225 7.58864 7.1752V15.5652H24.5186C24.7429 15.5622 24.9656 15.6029 25.1738 15.6848C25.3821 15.7668 25.5717 15.8883 25.7317 16.0426C25.8948 16.191 26.0243 16.3715 26.1116 16.5725C26.1987 16.7732 26.2418 16.9899 26.2378 17.2081V31.6962C26.2354 32.1426 26.0535 32.5701 25.7315 32.8857C25.4097 33.2014 24.9738 33.3797 24.5186 33.3821H5.2913C4.83631 33.379 4.40079 33.2005 4.07905 32.885C3.75731 32.5695 3.57521 32.1424 3.57217 31.6962V17.2081C3.56747 16.989 3.61013 16.7715 3.69735 16.5697C3.78458 16.3679 3.9144 16.1865 4.07825 16.0375C4.23824 15.8832 4.42782 15.7617 4.63604 15.6798C4.84426 15.5978 5.06698 15.5572 5.2913 15.5602V12.0206C4.59411 12.009 3.90188 12.1375 3.25721 12.3981C2.61254 12.6587 2.02906 13.046 1.54268 13.5359C1.04306 14.0126 0.648212 14.5846 0.382457 15.2166C0.1167 15.8485 -0.0143436 16.5271 -0.00260891 17.2107V31.6962C-0.0150306 32.3798 0.1157 33.0587 0.381496 33.6907C0.647293 34.3227 1.0425 34.8947 1.54268 35.371C2.0286 35.8616 2.61199 36.2491 3.25676 36.5098C3.90155 36.7704 4.594 36.8986 5.2913 36.8863H24.5186C25.2144 36.8891 25.9038 36.7569 26.5472 36.497C27.1906 36.2371 27.7751 35.855 28.2671 35.3725C28.759 34.8899 29.1486 34.3167 29.4135 33.6856C29.6782 33.0546 29.8131 32.3785 29.81 31.6962V17.2081C29.8221 16.5248 29.6914 15.8463 29.4261 15.2143C29.1608 14.5824 28.7664 14.0104 28.2672 13.5334Z" fill="#6366F1"/>
<path d="M17.2043 29.9526L15.9681 27.0797C16.3118 26.8976 16.5997 26.6286 16.8017 26.3007C17.0037 25.9727 17.1124 25.5977 17.1168 25.2145C17.1029 24.648 16.8636 24.1093 16.4501 23.7136C16.0366 23.3177 15.4816 23.0962 14.9038 23.0962C14.326 23.0962 13.7709 23.3177 13.3574 23.7136C12.944 24.1093 12.7047 24.648 12.6908 25.2145C12.6951 25.5977 12.8039 25.9727 13.0059 26.3007C13.2078 26.6286 13.4956 26.8976 13.8395 27.0797L12.6045 29.9526H17.2043Z" fill="#6366F1"/>
<path d="M47.5188 15.7323H51.0619C50.9549 11.9081 47.5069 9.13318 42.5607 9.13318C37.6741 9.13318 33.9288 11.8731 33.9288 15.9889C33.9288 19.3119 36.3543 21.259 40.2661 22.2966L43.1434 23.0662C45.7472 23.7424 47.7565 24.5819 47.7565 26.7038C47.7565 29.0357 45.4857 30.5748 42.3587 30.5748C39.5288 30.5748 37.1747 29.3389 36.9607 26.7388H33.2749C33.5127 31.0645 36.925 33.7344 42.3823 33.7344C48.1013 33.7344 51.3948 30.7846 51.3948 26.7388C51.3948 22.4365 47.4831 20.7693 44.3917 20.0231L42.0138 19.4168C40.1115 18.9387 37.5789 18.0642 37.5909 15.7791C37.5909 13.7502 39.4813 12.2462 42.4775 12.2462C45.2717 12.2462 47.2572 13.5287 47.5188 15.7323ZM60.8143 33.7344C63.8344 33.7344 65.5346 32.2304 66.2123 30.8896H66.355V33.338H69.8268V21.4455C69.8268 16.2338 65.6416 15.196 62.7406 15.196C59.4352 15.196 56.3915 16.5019 55.2025 19.7665L58.5434 20.5128C59.0666 19.2419 60.3983 18.0176 62.7881 18.0176C65.0828 18.0176 66.2598 19.1952 66.2598 21.224V21.3056C66.2598 22.5764 64.9282 22.5531 61.6466 22.9262C58.1868 23.3226 54.6436 24.2087 54.6436 28.2779C54.6436 31.7989 57.3426 33.7344 60.8143 33.7344ZM61.5873 30.9362C59.5779 30.9362 58.1273 30.0501 58.1273 28.3244C58.1273 26.459 59.8157 25.7944 61.8726 25.5262C63.0259 25.3747 65.7604 25.0715 66.2718 24.5701V26.8787C66.2718 29.0007 64.5478 30.9362 61.5873 30.9362ZM83.2532 15.4293H79.3177V13.8202C79.3177 12.2346 79.9836 11.3718 81.7195 11.3718C82.4566 11.3718 82.9798 11.535 83.3127 11.6399L84.1449 8.81838C83.6455 8.63182 82.6112 8.34033 81.1726 8.34033C78.2834 8.34033 75.7508 9.99596 75.7508 13.3538V15.4293H72.9329V18.2275H75.7508V33.338H79.3177V18.2275H83.2532V15.4293ZM86.9212 33.338H90.4763V15.4293H86.9212V33.338ZM88.7165 12.666C89.9412 12.666 90.9637 11.7332 90.9637 10.5906C90.9637 9.44798 89.9412 8.50357 88.7165 8.50357C87.4799 8.50357 86.4693 9.44798 86.4693 10.5906C86.4693 11.7332 87.4799 12.666 88.7165 12.666ZM103.13 33.6994C107.113 33.6994 109.931 31.7757 110.739 28.8608L107.374 28.2662C106.732 29.9567 105.187 30.8196 103.165 30.8196C100.122 30.8196 98.0766 28.8841 97.9816 25.433H110.965V24.1971C110.965 17.7262 107.018 15.196 102.88 15.196C97.7913 15.196 94.4384 18.997 94.4384 24.5002C94.4384 30.0617 97.7438 33.6994 103.13 33.6994ZM97.9935 22.8213C98.1361 20.2795 100.015 18.076 102.904 18.076C105.662 18.076 107.47 20.0813 107.481 22.8213H97.9935ZM118.464 22.7046C118.464 19.8482 120.248 18.2159 122.721 18.2159C125.135 18.2159 126.597 19.7665 126.597 22.3666V33.338H130.153V21.9468C130.153 17.5163 127.667 15.196 123.934 15.196C121.187 15.196 119.392 16.4435 118.548 18.344H118.322V15.4293H114.91V33.338H118.464V22.7046ZM143.445 15.4293H139.7V11.1386H136.144V15.4293H133.47V18.2275H136.144V28.8025C136.133 32.0555 138.665 33.6295 141.471 33.5713C142.601 33.5595 143.361 33.3496 143.778 33.1981L143.136 30.3183C142.897 30.3649 142.458 30.4698 141.888 30.4698C140.734 30.4698 139.7 30.0967 139.7 28.0796V18.2275H143.445V15.4293Z" fill="#6366F1"/>
</g>
<defs>
<clipPath id="clip0_2730_2332">
<rect width="145" height="37" fill="white"/>
</clipPath>
</defs>
</svg>
